<svg xmlns="http://www.w3.org/2000/svg" xmlns:xlink="http://www.w3.org/1999/xlink" baseProfile="tiny" viewBox="0 0 989.83 220.43" xmlns:v="https://vecta.io/nano"><path fill="#fff" d="M10.03 10.04h294.95v200.28H10.03z"/><path fill="#039" d="M15.7 15.54h283.6v189.07H15.7z"/><g fill="#fc0"><path d="M151.46 56.73l5.98-4.36 5.99 4.36-2.28-7.06 6.08-4.37h-7.49l-2.3-7.15-2.29 7.16-7.49-.01 6.08 4.37-2.28 7.06m-30.97 8.32l5.98-4.36 5.99 4.36-2.28-7.06 6.08-4.37h-7.5l-2.29-7.15-2.29 7.16-7.49-.01 6.07 4.37-2.27 7.06m-16.68 4.13l-2.29 7.16-7.49-.01 6.08 4.37-2.28 7.06 5.98-4.36 5.99 4.36-2.28-7.06 6.08-4.37h-7.49l-2.3-7.15m-8.31 45.15l5.98 4.36-2.27-7.06 6.07-4.37H97.8l-2.3-7.15-2.29 7.17-7.49-.02 6.08 4.37-2.28 7.06 5.98-4.36"/><use xlink:href="#B"/><path d="M128.81 160.99l-2.29-7.15-2.29 7.16-7.49-.01 6.07 4.37-2.27 7.06 5.98-4.37 5.98 4.37-2.27-7.06 6.07-4.37h-7.49m30.93 8.23l-2.29-7.16-2.29 7.16h-7.49l6.07 4.36-2.27 7.07 5.98-4.37 5.98 4.37-2.28-7.07 6.08-4.36h-7.49m30.93-8.23l-2.29-7.15-2.3 7.16-7.48-.01 6.07 4.37-2.27 7.06 5.98-4.37 5.99 4.37-2.29-7.06 6.08-4.37h-7.49"/><use xlink:href="#B" x="107.27"/><path d="M229.09 107.18h-7.49l-2.3-7.16-2.29 7.17-7.49-.01 6.08 4.36-2.27 7.07 5.97-4.38 5.99 4.38-2.28-7.07 6.08-4.36M205.1 87.67l5.98-4.37 5.99 4.37-2.28-7.06 6.08-4.36h-7.49l-2.3-7.16-2.29 7.17-7.49-.01 6.08 4.36-2.28 7.06m-16.63-41.2l-2.29 7.17-7.49-.02 6.07 4.38-2.28 7.06 6-4.37 5.97 4.37-2.27-7.06 6.08-4.38h-7.5l-2.29-7.15"/></g><g fill="#039"><path d="M340.33 86.71V40.18h31.9v7.87h-22.5v11.01h19.42v7.87h-19.42V86.7h-9.4zm61.76 0v-5.05c-1.23 1.8-2.84 3.22-4.84 4.25-2 1.04-4.11 1.55-6.33 1.55-2.26 0-4.3-.5-6.09-1.49-1.8-.99-3.1-2.39-3.9-4.19s-1.21-4.28-1.21-7.46V53h8.92v15.49c0 4.74.16 7.64.49 8.71s.92 1.92 1.79 2.54c.87.63 1.97.94 3.3.94 1.52 0 2.89-.42 4.09-1.25 1.21-.83 2.03-1.87 2.47-3.11.45-1.24.67-4.27.67-9.09V53h8.92v33.71h-8.28zm48.18 0h-8.92V69.5c0-3.64-.19-5.99-.57-7.06s-1-1.9-1.86-2.49-1.89-.89-3.09-.89c-1.54 0-2.93.42-4.16 1.27s-2.07 1.97-2.52 3.37c-.46 1.4-.68 3.98-.68 7.74v15.27h-8.92V53h8.28v4.95c2.94-3.81 6.64-5.71 11.11-5.71 1.97 0 3.77.35 5.4 1.06s2.86 1.61 3.7 2.71a9.8 9.8 0 0 1 1.75 3.75c.33 1.4.49 3.4.49 6v20.95zm39.96 0h-8.28v-4.95c-1.38 1.93-3 3.36-4.87 4.3s-3.76 1.41-5.67 1.41c-3.87 0-7.19-1.56-9.95-4.68s-4.14-7.47-4.14-13.06c0-5.71 1.34-10.05 4.03-13.03 2.69-2.97 6.08-4.46 10.19-4.46 3.77 0 7.02 1.57 9.78 4.7V40.18h8.92v46.53zm-23.8-17.59c0 3.6.5 6.2 1.49 7.81 1.44 2.33 3.45 3.49 6.03 3.49 2.05 0 3.8-.87 5.24-2.62s2.16-4.35 2.16-7.82c0-3.87-.7-6.66-2.09-8.36s-3.19-2.56-5.36-2.56c-2.12 0-3.89.84-5.32 2.52-1.44 1.69-2.15 4.2-2.15 7.54zm52.11 6.86l8.89 1.49c-1.14 3.26-2.95 5.74-5.41 7.44-2.47 1.7-5.55 2.55-9.25 2.55-5.86 0-10.2-1.92-13.01-5.74-2.22-3.07-3.33-6.94-3.33-11.62 0-5.59 1.46-9.96 4.38-13.12s6.61-4.75 11.08-4.75c5.01 0 8.97 1.66 11.87 4.97s4.28 8.38 4.16 15.22h-22.34c.06 2.65.78 4.7 2.16 6.17s3.09 2.21 5.14 2.21c1.4 0 2.57-.38 3.52-1.14s1.65-1.99 2.14-3.68zm.51-9.01c-.06-2.58-.73-4.54-2-5.89-1.27-1.34-2.81-2.02-4.63-2.02-1.95 0-3.55.71-4.82 2.13s-1.89 3.34-1.87 5.78h13.32zm47.03 19.74h-8.28v-4.95c-1.38 1.93-3 3.36-4.87 4.3s-3.76 1.41-5.67 1.41c-3.87 0-7.19-1.56-9.95-4.68s-4.14-7.47-4.14-13.06c0-5.71 1.34-10.05 4.03-13.03 2.69-2.97 6.08-4.46 10.19-4.46 3.77 0 7.02 1.57 9.78 4.7V40.18h8.92v46.53zm-23.8-17.59c0 3.6.5 6.2 1.49 7.81 1.44 2.33 3.45 3.49 6.03 3.49 2.05 0 3.8-.87 5.24-2.62s2.16-4.35 2.16-7.82c0-3.87-.7-6.66-2.09-8.36s-3.19-2.56-5.36-2.56c-2.12 0-3.89.84-5.32 2.52-1.43 1.69-2.15 4.2-2.15 7.54zm50.27 17.59V40.18h8.92v16.76c2.75-3.13 6.01-4.7 9.78-4.7 4.1 0 7.5 1.49 10.19 4.46s4.03 7.24 4.03 12.81c0 5.76-1.37 10.19-4.11 13.3s-6.07 4.67-9.98 4.67c-1.93 0-3.82-.48-5.7-1.44-1.87-.96-3.49-2.38-4.84-4.27v4.95h-8.29zm8.86-17.59c0 3.49.55 6.07 1.65 7.74 1.54 2.37 3.6 3.55 6.16 3.55 1.97 0 3.64-.84 5.03-2.52s2.08-4.33 2.08-7.95c0-3.85-.7-6.63-2.09-8.33s-3.18-2.56-5.36-2.56c-2.14 0-3.91.83-5.33 2.49-1.43 1.68-2.14 4.2-2.14 7.58zM628.42 53h9.49l8.06 23.93L653.84 53h9.24l-11.9 32.44-2.13 5.87c-.78 1.97-1.53 3.47-2.24 4.51s-1.52 1.88-2.44 2.52c-.92.65-2.05 1.15-3.4 1.51-1.34.36-2.86.54-4.55.54-1.71 0-3.4-.18-5.05-.54l-.79-6.98c1.4.27 2.66.41 3.78.41 2.07 0 3.61-.61 4.6-1.83s1.76-2.77 2.29-4.65L628.42 53zm-272.76 78v7.11h-6.09v13.58l.17 4.81c.12.46.38.83.79 1.13s.92.45 1.51.45c.83 0 2.02-.29 3.59-.86l.76 6.92c-2.07.89-4.42 1.33-7.04 1.33-1.61 0-3.06-.27-4.35-.81s-2.24-1.24-2.84-2.09c-.6-.86-1.02-2.02-1.25-3.47-.19-1.04-.29-3.13-.29-6.29v-14.69h-4.09V131h4.09v-6.7l8.95-5.21V131h6.09zm15.08-12.82v17.11c2.88-3.36 6.32-5.05 10.31-5.05 2.05 0 3.9.38 5.55 1.14s2.89 1.74 3.73 2.92a10.45 10.45 0 0 1 1.71 3.94c.31 1.44.46 3.67.46 6.7v19.77h-8.92v-17.8c0-3.53-.17-5.78-.51-6.73a4.46 4.46 0 0 0-1.79-2.27c-.86-.56-1.93-.84-3.22-.84-1.48 0-2.8.36-3.97 1.08-1.16.72-2.01 1.8-2.55 3.25s-.81 3.59-.81 6.43v16.88h-8.92v-46.53h8.93z"/><use xlink:href="#C"/><path d="M455.82 164.71v-46.53h34.5v7.87h-25.11v10.32h23.36v7.84h-23.36v12.66h25.99v7.84h-35.38zm65.48 0v-5.05c-1.23 1.8-2.84 3.22-4.84 4.25-2 1.04-4.11 1.55-6.33 1.55-2.26 0-4.3-.5-6.09-1.49-1.8-.99-3.1-2.39-3.9-4.19s-1.21-4.28-1.21-7.46V131h8.92v15.49c0 4.74.16 7.64.49 8.71s.92 1.92 1.79 2.54c.87.63 1.97.94 3.3.94 1.52 0 2.89-.42 4.09-1.25 1.21-.83 2.03-1.87 2.47-3.11.45-1.24.67-4.27.67-9.09V131h8.92v33.71h-8.28zm26.06 0h-8.92V131h8.28v4.79c1.42-2.26 2.69-3.75 3.82-4.47s2.42-1.08 3.86-1.08c2.03 0 3.99.56 5.87 1.68l-2.76 7.78c-1.5-.97-2.9-1.46-4.19-1.46-1.25 0-2.31.34-3.17 1.03-.87.69-1.55 1.93-2.05 3.73s-.75 5.57-.75 11.3v10.41z"/><use xlink:href="#D"/><path d="M603.57 131h8.31v4.95c1.08-1.69 2.54-3.07 4.38-4.13s3.88-1.59 6.13-1.59c3.91 0 7.24 1.53 9.97 4.6s4.09 7.34 4.09 12.82c0 5.63-1.38 10-4.13 13.12s-6.08 4.68-10 4.68c-1.86 0-3.55-.37-5.06-1.11s-3.11-2.01-4.78-3.81v16.98h-8.92V131zm8.82 16.28c0 3.79.75 6.58 2.25 8.39s3.33 2.71 5.49 2.71c2.07 0 3.8-.83 5.17-2.49 1.38-1.66 2.06-4.38 2.06-8.17 0-3.53-.71-6.16-2.13-7.87s-3.17-2.57-5.27-2.57c-2.18 0-3.99.84-5.43 2.52-1.42 1.69-2.14 4.18-2.14 7.48z"/><use xlink:href="#C" x="241.97"/><path d="M686.34 141.28l-8.09-1.46c.91-3.26 2.48-5.67 4.7-7.24s5.52-2.35 9.9-2.35c3.98 0 6.94.47 8.89 1.41s3.32 2.14 4.11 3.59 1.19 4.11 1.19 7.98l-.09 10.41c0 2.96.14 5.15.43 6.55.29 1.41.82 2.92 1.6 4.52h-8.82c-.23-.59-.52-1.47-.86-2.63l-.32-1.05c-1.52 1.48-3.15 2.59-4.89 3.33-1.73.74-3.59 1.11-5.55 1.11-3.47 0-6.21-.94-8.2-2.82-2-1.88-3-4.26-3-7.14 0-1.9.46-3.6 1.37-5.09s2.18-2.63 3.82-3.43c1.64-.79 4-1.49 7.09-2.08 4.17-.78 7.06-1.51 8.66-2.19v-.89c0-1.71-.42-2.94-1.27-3.67s-2.44-1.1-4.79-1.1c-1.59 0-2.83.31-3.71.94-.9.64-1.62 1.74-2.17 3.3zm11.93 7.24c-1.14.38-2.95.84-5.43 1.36-2.48.53-4.09 1.05-4.86 1.56-1.16.83-1.75 1.87-1.75 3.14 0 1.25.46 2.33 1.4 3.24.93.91 2.12 1.36 3.55 1.36 1.61 0 3.14-.53 4.6-1.59 1.08-.8 1.79-1.79 2.13-2.95.23-.76.35-2.21.35-4.35v-1.77z"/><use xlink:href="#E"/><path d="M773.59 118.18h9.39v25.2l.35 7.78c.4 1.9 1.36 3.43 2.87 4.59s3.58 1.73 6.21 1.73c2.67 0 4.68-.54 6.03-1.63s2.17-2.43 2.44-4.01c.27-1.59.41-4.22.41-7.9V118.2h9.39v24.44c0 5.59-.25 9.53-.76 11.84s-1.44 4.25-2.81 5.84-3.19 2.85-5.47 3.79-5.27 1.41-8.95 1.41c-4.44 0-7.81-.51-10.11-1.54s-4.11-2.36-5.44-4-2.21-3.36-2.63-5.16c-.61-2.67-.92-6.6-.92-11.81v-24.83z"/><use xlink:href="#E" x="104.71"/><path d="M860.23 126.43v-8.25h8.92v8.25h-8.92zm0 38.28V131h8.92v33.71h-8.92z"/><use xlink:href="#D" x="314.18"/><use xlink:href="#E" x="202.18"/></g><defs ><path id="B" d="M106.11 138.29l-2.3-7.16-2.29 7.16h-7.49l6.08 4.36-2.28 7.07 5.98-4.38 5.99 4.38-2.28-7.07 6.08-4.36h-7.49"/><path id="C" d="M421.07 153.98l8.89 1.49c-1.14 3.26-2.95 5.74-5.41 7.44-2.47 1.7-5.55 2.55-9.25 2.55-5.86 0-10.2-1.92-13.01-5.74-2.22-3.07-3.33-6.94-3.33-11.62 0-5.59 1.46-9.96 4.38-13.12s6.61-4.75 11.08-4.75c5.01 0 8.97 1.66 11.87 4.97s4.28 8.38 4.16 15.22h-22.34c.06 2.65.78 4.7 2.16 6.17s3.09 2.21 5.14 2.21c1.4 0 2.57-.38 3.52-1.14s1.66-1.99 2.14-3.68zm.51-9.01c-.06-2.58-.73-4.54-2-5.89-1.27-1.34-2.81-2.02-4.63-2.02-1.95 0-3.55.71-4.82 2.13s-1.89 3.34-1.87 5.78h13.32z"/><path id="D" d="M562.05 147.38c0-2.96.73-5.83 2.19-8.6s3.53-4.89 6.2-6.35c2.68-1.46 5.67-2.19 8.97-2.19 5.1 0 9.28 1.66 12.54 4.97s4.89 7.5 4.89 12.55c0 5.1-1.65 9.33-4.94 12.68s-7.43 5.03-12.42 5.03c-3.09 0-6.04-.7-8.84-2.09s-4.94-3.44-6.39-6.14c-1.47-2.71-2.2-5.99-2.2-9.86zm9.14.47c0 3.34.79 5.9 2.38 7.68s3.54 2.67 5.87 2.67 4.28-.89 5.86-2.67 2.36-4.36 2.36-7.74c0-3.3-.79-5.84-2.36-7.62s-3.53-2.67-5.86-2.67-4.28.89-5.87 2.67c-1.58 1.78-2.38 4.34-2.38 7.68z"/><path id="E" d="M746.48 164.71h-8.92v-17.2c0-3.64-.19-5.99-.57-7.06s-1-1.9-1.86-2.49-1.89-.89-3.09-.89c-1.54 0-2.93.42-4.16 1.27s-2.07 1.97-2.52 3.37c-.46 1.4-.68 3.98-.68 7.74v15.27h-8.92V131h8.28v4.95c2.94-3.81 6.64-5.71 11.11-5.71 1.97 0 3.77.35 5.4 1.06s2.86 1.61 3.7 2.71a9.8 9.8 0 0 1 1.75 3.75c.33 1.4.49 3.4.49 6v20.95z"/></defs></svg>