<svg id="Layer_1" data-name="Layer 1" xmlns="http://www.w3.org/2000/svg" viewBox="0 0 582.53 184.58"><defs><style>.cls-1{fill:#93b0db;}.cls-2{fill:#039;}.cls-3{fill:red;}</style></defs><title>Artboard 13 copy 2</title><path class="cls-1" d="M287.56,7.06a48.3,48.3,0,0,1,27.57,8.7l1.19.81,4.44-6-4-2.53a57.34,57.34,0,0,0-29.17-8A54.31,54.31,0,0,0,248,16.47c-11,10.93-16.54,24.17-16.54,39.35a54.31,54.31,0,0,0,7.41,27.42,57.24,57.24,0,0,0,20.19,20.62,52.61,52.61,0,0,0,27.66,7.78h1.54a53.59,53.59,0,0,0,28.5-8.06l1.1-.68-.5-1.19s-1.14-2.67-1.75-4l-.7-1.6-1.47.93a47.9,47.9,0,0,1-25.88,7.59,46.61,46.61,0,0,1-34.22-14.4,47.42,47.42,0,0,1-14.26-34.43,47.16,47.16,0,0,1,14.26-34.36A46.74,46.74,0,0,1,287.56,7.06Z"/><path class="cls-1" d="M387.66,55.64a29.2,29.2,0,0,0-9.16-8.12,35.31,35.31,0,0,0-17.9-5A33.76,33.76,0,0,0,336,52.73a34.12,34.12,0,0,0,0,48.74,33.76,33.76,0,0,0,24.58,10.17,34.13,34.13,0,0,0,17.56-4.83,31.54,31.54,0,0,0,9.5-8.52V110.1h7.48v-66h-7.48Zm-7.77,2.07A27.55,27.55,0,0,1,380,96.56a25.87,25.87,0,0,1-19.15,8.16,27.9,27.9,0,0,1-27.55-27.48,27,27,0,0,1,8.17-19.46,26.32,26.32,0,0,1,19.31-8.3A25.61,25.61,0,0,1,379.89,57.71Z"/><path class="cls-1" d="M462.08,51.13a28.13,28.13,0,0,0-20.81-8.57c-10,0-17.68,3.52-22.86,10.46V44.1h-7.48v66h7.48V71.92a21,21,0,0,1,6.9-15.72,22,22,0,0,1,16-6.72,20.27,20.27,0,0,1,15.37,6.67A22,22,0,0,1,463,71.92V110.1h7.48V71.92A28.68,28.68,0,0,0,462.08,51.13Z"/><polygon class="cls-2" points="116.16 101.1 149.4 101.1 149.4 91.46 128.44 91.46 128.44 77.02 147 77.02 147 67.38 128.44 67.38 128.44 53.74 149.4 53.74 149.4 44.1 116.16 44.1 116.16 101.1"/><path class="cls-2" d="M193.68,44.26v34.9c0,3.69-1,6.5-2.82,8.37s-4.57,2.81-8,2.81-6.17-.94-8-2.81S172,82.85,172,79.16V44.26H159.76v34.9c0,7.21,2.21,12.83,6.56,16.69a23.67,23.67,0,0,0,16.26,5.81,24.46,24.46,0,0,0,16.48-5.84c4.52-3.9,6.82-9.5,6.82-16.66V44.26Z"/><path class="cls-3" d="M141.1,137.78c5.87,0,9.91,2.32,12.35,7.09l.14.27h14.54l-.24-.67a26.1,26.1,0,0,0-10.32-13.29,29.52,29.52,0,0,0-16.47-4.72,28.56,28.56,0,0,0-20.63,8.22c-5.6,5.46-8.43,12.47-8.43,20.84s2.82,15.38,8.39,20.84h0a28.5,28.5,0,0,0,20.67,8.22,29.65,29.65,0,0,0,16.47-4.68,25.88,25.88,0,0,0,10.32-13.25l.24-.67H153.59l-.14.27c-2.49,4.77-6.53,7.09-12.35,7.09a15.89,15.89,0,0,1-12-4.84c-3.07-3.22-4.62-7.58-4.62-12.94s1.55-9.71,4.62-12.93A15.86,15.86,0,0,1,141.1,137.78Z"/><path class="cls-3" d="M192.34,127.1l-20.11,57h13l3.6-10.48h21.05l3.6,10.48h13l-20-57ZM206.63,164H192.11l7.23-21.23Z"/><polygon class="cls-3" points="269.63 127.1 269.63 164.64 245.13 127.1 233.07 127.1 233.07 184.1 245.35 184.1 245.35 146.56 269.86 184.1 281.92 184.1 281.92 127.1 269.63 127.1"/><circle class="cls-3" cx="306.82" cy="175.68" r="8.5"/><circle class="cls-2" cx="91.74" cy="52.6" r="8.5"/></svg>