<svg xmlns="http://www.w3.org/2000/svg" viewBox="0 0 300 300"><defs><style>.cls-1{fill:#2126c2;}.cls-2{fill:#ffa617;}.cls-3{fill:#6470ff;}</style></defs><g id="Capa_2" data-name="Capa 2"><g id="Capa_1-2" data-name="Capa 1"><path class="cls-1" d="M238.78,300H0V61.22H120.77a41.52,41.52,0,0,1,41.47,41.48v25.87H137.75V102.7a17,17,0,0,0-17-17H24.49v189.8h189.8V248h24.49Z"/><path class="cls-2" d="M238.78,205.1H214.29V179.23a17,17,0,0,0-17-17H102.7a41.53,41.53,0,0,1-41.48-41.48V94.9H85.71v25.87a17,17,0,0,0,17,17h94.6a41.52,41.52,0,0,1,41.48,41.47Z"/><path class="cls-3" d="M300,238.78H179.23a41.53,41.53,0,0,1-41.48-41.48V171.43h24.49V197.3a17,17,0,0,0,17,17h96.28V24.49H85.71V52H61.22V0H300Z"/></g></g></svg>