<?xml version="1.0" encoding="UTF-8"?><svg id="Capa_1" xmlns="http://www.w3.org/2000/svg" viewBox="0 0 1080 232.03"><defs><style>.oncoliner-logo-cls-1{fill:#2126c2;}.oncoliner-logo-cls-1,.oncoliner-logo-cls-2,.oncoliner-logo-cls-3,.oncoliner-logo-cls-4{stroke-width:0px;}.oncoliner-logo-cls-3{fill:#ffa617;}.oncoliner-logo-cls-4{fill:#6470ff;}</style></defs><path class="oncoliner-logo-cls-2" d="m286.37,77.48c0-27.49,14.48-43.19,40.99-43.19s40.99,15.71,40.99,43.19v77.06c0,27.49-14.48,43.19-40.99,43.19s-40.99-15.71-40.99-43.19v-77.06Zm27,78.78c0,12.27,5.4,16.94,13.99,16.94s13.99-4.66,13.99-16.94v-80.5c0-12.27-5.4-16.93-13.99-16.93s-13.99,4.66-13.99,16.93v80.5Z"/><path class="oncoliner-logo-cls-2" d="m409.82,83.62v112.16h-24.3V36.25h33.87l27.73,90.56V36.25h24.05v159.52h-27.73l-33.62-112.16Z"/><path class="oncoliner-logo-cls-2" d="m568.85,131.72v22.82c0,27.49-13.74,43.19-40.25,43.19s-40.25-15.71-40.25-43.19v-77.06c0-27.49,13.74-43.19,40.25-43.19s40.25,15.71,40.25,43.19v12.6h-25.52v-14.32c0-12.27-5.4-16.93-13.99-16.93s-13.99,4.66-13.99,16.93v80.5c0,12.27,5.4,16.69,13.99,16.69s13.99-4.42,13.99-16.69v-24.54h25.52Z"/><path class="oncoliner-logo-cls-2" d="m583.09,77.48c0-27.49,14.48-43.19,40.99-43.19s40.99,15.71,40.99,43.19v77.06c0,27.49-14.48,43.19-40.99,43.19s-40.99-15.71-40.99-43.19v-77.06Zm27,78.78c0,12.27,5.4,16.94,13.99,16.94s13.99-4.66,13.99-16.94v-80.5c0-12.27-5.4-16.93-13.99-16.93s-13.99,4.66-13.99,16.93v80.5Z"/><path class="oncoliner-logo-cls-2" d="m684.38,36.25h14.68v144.45h53.89v15.07h-68.58V36.25Z"/><path class="oncoliner-logo-cls-2" d="m768.1,60.55h15.11v135.23h-15.11V60.55Z"/><path class="oncoliner-logo-cls-2" d="m817.43,55.21v140.57h-14.83V36.25h24.4l46.68,128.44V36.25h14.58v159.52h-18.26l-52.56-140.57Z"/><path class="oncoliner-logo-cls-2" d="m925.17,100.17h46.53v15.07h-46.53v65.46h56.1v15.07h-71.73V36.25h71.73v15.07h-56.1v48.85Z"/><path class="oncoliner-logo-cls-2" d="m1062.93,195.78c-1.47-4.42-2.45-7.12-2.45-21.11v-27c0-15.95-9.49-26.58-28.09-26.58h-18.79v74.68h-16.58V36.25h39.79c27.98,0,40.01,13.01,40.01,39.51v1.23c0,17.67-5.64,29.21-17.67,34.85,13.5,5.64,17.92,18.65,17.92,36.57v26.51c0,8.34.25,14.48,2.94,20.86h-17.07Zm-49.34-144.45v54.7h20.02c17.01,0,26.62-8.89,26.62-22.9v-8.75c0-14.93-7.47-23.05-24.16-23.05h-22.48Z"/><rect class="oncoliner-logo-cls-2" x="768.1" y="36.25" width="15.11" height="14.68"/><path class="oncoliner-logo-cls-1" d="m184.68,232.03H0V47.35h93.41c17.69,0,32.08,14.39,32.08,32.08v20.01h-18.94v-20.01c0-7.24-5.89-13.13-13.13-13.13H18.94v146.79h146.79v-21.31h18.94v40.25Z"/><path class="oncoliner-logo-cls-3" d="m184.68,158.63h-18.94v-20.01c0-7.24-5.89-13.13-13.13-13.13h-73.17c-17.69,0-32.08-14.39-32.08-32.08v-20.01h18.94v20.01c0,7.24,5.89,13.13,13.13,13.13h73.17c17.69,0,32.08,14.39,32.08,32.08v20.01Z"/><path class="oncoliner-logo-cls-4" d="m232.03,184.68h-93.41c-17.69,0-32.08-14.39-32.08-32.08v-20.01h18.94v20.01c0,7.24,5.89,13.13,13.13,13.13h74.47V18.94H66.29v21.31h-18.94V0h184.68v184.68Z"/></svg>